<svg xmlns="http://www.w3.org/2000/svg" width="20" height="16" viewBox="0 0 20 16" fill="none">
    <path fill-rule="evenodd" clip-rule="evenodd" d="M10 0C10.204 0 10.3997 0.070238 10.5439 0.195262C10.6882 0.320287 10.7692 0.489856 10.7692 0.666667V15.3333C10.7692 15.5101 10.6882 15.6797 10.5439 15.8047C10.3997 15.9298 10.204 16 10 16C9.79599 16 9.60033 15.9298 9.45607 15.8047C9.31181 15.6797 9.23077 15.5101 9.23077 15.3333V0.666667C9.23077 0.489856 9.31181 0.320287 9.45607 0.195262C9.60033 0.070238 9.79599 0 10 0ZM6.92308 2.66667C7.12709 2.66667 7.32275 2.7369 7.46701 2.86193C7.61126 2.98695 7.69231 3.15652 7.69231 3.33333V12.6667C7.69231 12.8435 7.61126 13.013 7.46701 13.1381C7.32275 13.2631 7.12709 13.3333 6.92308 13.3333C6.71906 13.3333 6.52341 13.2631 6.37915 13.1381C6.23489 13.013 6.15385 12.8435 6.15385 12.6667V3.33333C6.15385 3.15652 6.23489 2.98695 6.37915 2.86193C6.52341 2.7369 6.71906 2.66667 6.92308 2.66667ZM13.0769 2.66667C13.2809 2.66667 13.4766 2.7369 13.6209 2.86193C13.7651 2.98695 13.8462 3.15652 13.8462 3.33333V12.6667C13.8462 12.8435 13.7651 13.013 13.6209 13.1381C13.4766 13.2631 13.2809 13.3333 13.0769 13.3333C12.8729 13.3333 12.6773 13.2631 12.533 13.1381C12.3887 13.013 12.3077 12.8435 12.3077 12.6667V3.33333C12.3077 3.15652 12.3887 2.98695 12.533 2.86193C12.6773 2.7369 12.8729 2.66667 13.0769 2.66667ZM3.84615 4.66667C4.05017 4.66667 4.24582 4.7369 4.39008 4.86193C4.53434 4.98695 4.61538 5.15652 4.61538 5.33333V10.6667C4.61538 10.8435 4.53434 11.013 4.39008 11.1381C4.24582 11.2631 4.05017 11.3333 3.84615 11.3333C3.64214 11.3333 3.44648 11.2631 3.30223 11.1381C3.15797 11.013 3.07692 10.8435 3.07692 10.6667V5.33333C3.07692 5.15652 3.15797 4.98695 3.30223 4.86193C3.44648 4.7369 3.64214 4.66667 3.84615 4.66667ZM16.1538 4.66667C16.3579 4.66667 16.5535 4.7369 16.6978 4.86193C16.842 4.98695 16.9231 5.15652 16.9231 5.33333V10.6667C16.9231 10.8435 16.842 11.013 16.6978 11.1381C16.5535 11.2631 16.3579 11.3333 16.1538 11.3333C15.9498 11.3333 15.7542 11.2631 15.6099 11.1381C15.4657 11.013 15.3846 10.8435 15.3846 10.6667V5.33333C15.3846 5.15652 15.4657 4.98695 15.6099 4.86193C15.7542 4.7369 15.9498 4.66667 16.1538 4.66667ZM0.769231 6C0.973243 6 1.1689 6.07024 1.31316 6.19526C1.45742 6.32029 1.53846 6.48986 1.53846 6.66667V9.33333C1.53846 9.51014 1.45742 9.67971 1.31316 9.80474C1.1689 9.92976 0.973243 10 0.769231 10C0.565218 10 0.369561 9.92976 0.225303 9.80474C0.0810439 9.67971 0 9.51014 0 9.33333V6.66667C0 6.48986 0.0810439 6.32029 0.225303 6.19526C0.369561 6.07024 0.565218 6 0.769231 6ZM19.2308 6C19.4348 6 19.6304 6.07024 19.7747 6.19526C19.919 6.32029 20 6.48986 20 6.66667V9.33333C20 9.51014 19.919 9.67971 19.7747 9.80474C19.6304 9.92976 19.4348 10 19.2308 10C19.0268 10 18.8311 9.92976 18.6868 9.80474C18.5426 9.67971 18.4615 9.51014 18.4615 9.33333V6.66667C18.4615 6.48986 18.5426 6.32029 18.6868 6.19526C18.8311 6.07024 19.0268 6 19.2308 6Z" fill="#4B7FD6"/>
</svg>